HIERARCHY
ROOT Hips
{
	OFFSET 0.00000 0.00000 0.00000
	CHANNELS 6 Xposition Yposition Zposition Zrotation Yrotation Xrotation 
	JOINT LHipJoint
	{
		OFFSET 0 0 0
		CHANNELS 3 Zrotation Yrotation Xrotation
		JOINT LeftUpLeg
		{
			OFFSET 1.40001 -1.72600 0.84541
			CHANNELS 3 Zrotation Yrotation Xrotation
			JOINT LeftLeg
			{
				OFFSET 2.34760 -6.44999 0.00000
				CHANNELS 3 Zrotation Yrotation Xrotation
				JOINT LeftFoot
				{
					OFFSET 2.50650 -6.88655 0.00000
					CHANNELS 3 Zrotation Yrotation Xrotation
					JOINT LeftToeBase
					{
						OFFSET 0.12464 -0.34243 1.95563
						CHANNELS 3 Zrotation Yrotation Xrotation
						End Site
						{
							OFFSET 0.00000 -0.00000 1.00479
						}
					}
				}
			}
		}
	}
	JOINT RHipJoint
	{
		OFFSET 0 0 0
		CHANNELS 3 Zrotation Yrotation Xrotation
		JOINT RightUpLeg
		{
			OFFSET -1.40958 -1.72600 0.84541
			CHANNELS 3 Zrotation Yrotation Xrotation
			JOINT RightLeg
			{
				OFFSET -2.37905 -6.53640 0.00000
				CHANNELS 3 Zrotation Yrotation Xrotation
				JOINT RightFoot
				{
					OFFSET -2.50470 -6.88163 0.00000
					CHANNELS 3 Zrotation Yrotation Xrotation
					JOINT RightToeBase
					{
						OFFSET -0.12236 -0.33619 1.81785
						CHANNELS 3 Zrotation Yrotation Xrotation
						End Site
						{
							OFFSET -0.00000 -0.00000 0.93746
						}
					}
				}
			}
		}
	}
	JOINT LowerBack
	{
		OFFSET 0 0 0
		CHANNELS 3 Zrotation Yrotation Xrotation
		JOINT Spine
		{
			OFFSET -0.02146 1.96915 0.26424
			CHANNELS 3 Zrotation Yrotation Xrotation
			JOINT Spine1
			{
				OFFSET 0.01522 1.99484 0.02086
				CHANNELS 3 Zrotation Yrotation Xrotation
				JOINT Neck
				{
					OFFSET 0 0 0
					CHANNELS 3 Zrotation Yrotation Xrotation
					JOINT Neck1
					{
						OFFSET -0.02954 1.71757 0.03505
						CHANNELS 3 Zrotation Yrotation Xrotation
						JOINT Head
						{
							OFFSET 0.04170 1.65781 -0.11024
							CHANNELS 3 Zrotation Yrotation Xrotation
							End Site
							{
								OFFSET 0.01600 1.81465 -0.05144
							}
						}
					}
				}
				JOINT LeftShoulder
				{
					OFFSET 0 0 0
					CHANNELS 3 Zrotation Yrotation Xrotation
					JOINT LeftArm
					{
						OFFSET 2.77679 1.60868 -0.78649
						CHANNELS 3 Zrotation Yrotation Xrotation
						JOINT LeftForeArm
						{
							OFFSET 4.62672 -0.00000 -0.00000
							CHANNELS 3 Zrotation Yrotation Xrotation
							JOINT LeftHand
							{
								OFFSET 3.11018 -0.00000 -0.00000
								CHANNELS 3 Zrotation Yrotation Xrotation
								JOINT LeftFingerBase
								{
									OFFSET 0 0 0
									CHANNELS 3 Zrotation Yrotation Xrotation
									JOINT LeftHandIndex1
									{
										OFFSET 0.74383 -0.00000 -0.00000
										CHANNELS 3 Zrotation Yrotation Xrotation
										End Site
										{
											OFFSET 0.59970 -0.00000 -0.00000
										}
									}
								}
								JOINT LThumb
								{
									OFFSET 0 0 0
									CHANNELS 3 Zrotation Yrotation Xrotation
									End Site
									{
										OFFSET 0.60885 -0.00000 0.60885
									}
								}
							}
						}
					}
				}
				JOINT RightShoulder
				{
					OFFSET 0 0 0
					CHANNELS 3 Zrotation Yrotation Xrotation
					JOINT RightArm
					{
						OFFSET -2.73247 1.63658 -0.74740
						CHANNELS 3 Zrotation Yrotation Xrotation
						JOINT RightForeArm
						{
							OFFSET -4.55919 -0.00000 -0.00000
							CHANNELS 3 Zrotation Yrotation Xrotation
							JOINT RightHand
							{
								OFFSET -3.22748 -0.00000 -0.00000
								CHANNELS 3 Zrotation Yrotation Xrotation
								JOINT RightFingerBase
								{
									OFFSET 0 0 0
									CHANNELS 3 Zrotation Yrotation Xrotation
									JOINT RightHandIndex1
									{
										OFFSET -0.70088 -0.00000 -0.00000
										CHANNELS 3 Zrotation Yrotation Xrotation
										End Site
										{
											OFFSET -0.56507 -0.00000 -0.00000
										}
									}
								}
								JOINT RThumb
								{
									OFFSET 0 0 0
									CHANNELS 3 Zrotation Yrotation Xrotation
									End Site
									{
										OFFSET -0.57370 -0.00000 0.57370
									}
								}
							}
						}
					}
				}
			}
		}
	}
}
MOTION
Frames: 12
Frame Time: .0083333
-0.4885 16.4193 -45.0577 0 0 0 0 0 0 -21 0 0 0 0 0 0 0 0 0 0 0 0 0 0 21 0 0 0 0 0 0 0 0 0 0 0 0 0 0 0 0 0 0 0 0 0 0 -16 0 0 21 0 0 11 0 0 0 -8 0 0 0 0 0 0 0 0 0 0 0 0 0 0 0 0 0 0 0 0 8 0 0 0 0 0 0 0 0 0 0 0 0 0 0 0 0 0
-0.4885 16.4193 -45.0577 0.3590 -0.2893 18.1425 0.0000 0.0000 0.0000 -15.9092 -11.4989 -48.9001 6.4635 14.8629 46.8147 0.2291 4.3458 -11.7038 0.1487 -2.4846 -6.8468 0.0000 0.0000 0.0000 23.5074 0.1891 -24.2632 -2.9290 -10.5792 30.8736 -1.6672 17.2424 -24.4726 -0.0025 0.3250 -0.8930 0.4852 0.6301 -15.4169 1.4452 0.6843 -4.2482 1.3725 0.3419 4.1197 1.0124 -1.2590 -6.4045 -4.8575 -1.2925 9.7337 -1.9014 -0.8396 4.3321 -0.0000 -0.0000 0.0000 -90.5065 11.5606 2.1409 7.8380 -13.2900 -0.9145 -0.0000 -0.0000 31.6709 7.9967 -15.6886 -2.1755 -7.1250 0.0000 -0.0000 -13.1825 14.4296 9.7479 -0.0000 -0.0000 0.0000 85.3751 7.2193 25.3007 -21.5915 32.5122 -6.3649 0.0000 -0.0000 -8.1533 -18.8830 -35.3339 11.1897 7.1250 -0.0000 -0.0000 19.0397 -65.8800 -9.7526
-0.4828 16.4196 -44.8452 0.0833 -0.7726 18.2005 0.0000 0.0000 0.0000 -15.5917 -11.4205 -49.1304 5.6476 14.0779 43.5504 0.2142 4.7767 -11.8132 0.2120 -2.9641 -8.1789 0.0000 0.0000 0.0000 23.8521 -0.7381 -23.2840 -2.7582 -10.2930 29.9309 -1.6574 17.7772 -24.5644 -0.0185 0.8775 -2.4117 0.7886 0.7678 -15.4289 1.4830 0.8279 -4.9395 1.2592 0.4157 3.3977 0.7715 -1.1947 -3.4781 -4.7283 -1.2390 8.9458 -1.7445 -0.7756 3.4760 0.0000 0.0000 0.0000 -90.5247 14.3410 3.9771 8.1852 -13.8526 -0.9960 -0.0000 -0.0000 29.6248 8.0741 -15.6982 -2.1981 -7.1250 0.0000 -0.0000 -13.1308 14.4154 9.7116 0.0000 0.0000 0.0000 84.9578 6.1184 27.0521 -22.9290 34.0111 -7.0985 0.0000 -0.0000 -9.8774 -19.3428 -36.7889 11.8720 7.1250 -0.0000 -0.0000 20.1240 -67.3579 -11.0053
-0.4762 16.4190 -44.6328 -0.0513 -1.2458 18.1520 0.0000 0.0000 0.0000 -15.4692 -11.3124 -49.1187 4.8567 13.2205 40.1998 0.2240 4.9086 -12.1012 0.1687 -2.6459 -7.2944 0.0000 0.0000 0.0000 23.9386 -1.4827 -22.1414 -2.6160 -10.0459 29.1254 -1.6211 18.4461 -24.5478 -0.0223 0.9647 -2.6517 0.8226 0.7865 -15.8336 1.6126 0.8235 -4.4462 1.3888 0.4116 4.1336 0.4939 -0.9965 -4.0296 -4.6602 -0.9653 8.6574 -1.6642 -0.6494 3.4916 -0.0000 -0.0000 0.0000 -90.9435 13.1009 1.7802 7.5972 -12.8978 -0.8600 -0.0000 -0.0000 31.7388 8.4312 -16.0301 -2.3439 -7.1250 0.0000 -0.0000 -12.8842 14.0664 9.6174 -0.0000 -0.0000 0.0000 84.3719 7.5138 28.4416 -23.9813 35.1445 -7.6958 0.0000 -0.0000 -11.2284 -19.0503 -36.6041 11.6347 7.1250 -0.0000 -0.0000 20.2533 -67.1013 -10.9605
-0.4697 16.4052 -44.4200 -0.1445 -1.7852 18.0652 0.0000 0.0000 0.0000 -15.4319 -11.1144 -48.9519 4.0944 12.2850 36.7477 0.2196 5.0978 -12.1950 0.1207 -2.2401 -6.1697 0.0000 0.0000 0.0000 23.9071 -2.0328 -20.8441 -2.4728 -9.7882 28.2937 -1.5449 19.2108 -24.3415 -0.0047 0.4428 -1.2166 0.6936 1.2580 -16.1075 1.4046 1.4790 -4.9584 1.3653 0.7367 3.7290 1.1740 -1.4193 -0.6776 -5.0101 -1.6006 7.5376 -1.8482 -0.9032 2.4570 0.0000 0.0000 0.0000 -90.4266 16.3705 5.1456 8.2441 -13.9478 -1.0102 -0.0000 -0.0000 29.4664 8.8467 -16.5128 -2.5330 -7.1250 0.0000 -0.0000 -12.5974 13.5635 9.5297 0.0000 0.0000 0.0000 84.2143 6.4509 28.3901 -25.1187 36.3251 -8.3601 0.0000 -0.0000 -11.8786 -18.6099 -35.9874 11.1923 7.1250 -0.0000 -0.0000 20.0667 -66.4057 -10.5385
-0.4620 16.3870 -44.2061 -0.2498 -2.2367 18.1280 0.0000 0.0000 0.0000 -15.3552 -10.9502 -48.8886 3.3757 11.2798 33.2294 0.2058 5.2715 -12.1180 0.1102 -2.1406 -5.8943 0.0000 0.0000 0.0000 23.8871 -2.6992 -19.8166 -2.3453 -9.5510 27.5345 -1.4135 20.3754 -23.9806 -0.0037 -0.3943 1.0835 0.5965 1.3374 -16.0931 1.4635 1.5905 -4.5937 1.5099 0.7897 4.1006 1.1063 -1.2390 -2.2378 -4.9724 -1.3443 7.8449 -1.8481 -0.7990 2.8580 -0.0000 -0.0000 0.0000 -90.5443 16.4709 5.8717 8.4022 -14.2027 -1.0486 -0.0000 -0.0000 28.4925 8.9455 -16.6720 -2.5857 -7.1250 0.0000 -0.0000 -12.5288 13.3997 9.5195 -0.0000 -0.0000 0.0000 83.6810 8.1019 29.1914 -25.7206 36.9315 -8.7192 0.0000 -0.0000 -12.3382 -17.9807 -34.5205 10.4214 7.1250 -0.0000 -0.0000 19.2501 -64.8693 -9.4156
-0.4513 16.3634 -43.9829 -0.5416 -2.8597 18.0874 0.0000 0.0000 0.0000 -14.9435 -10.7682 -48.6133 2.7300 10.2446 29.7726 0.2062 5.4448 -12.2893 0.1031 -2.0708 -5.7014 0.0000 0.0000 0.0000 23.9914 -3.4758 -18.7210 -2.2234 -9.3167 26.7912 -1.2786 21.4705 -23.6226 -0.0059 -0.4940 1.3575 0.8725 1.4624 -16.8286 1.5191 1.6778 -3.7525 1.4695 0.8272 5.3922 0.8189 -0.9594 -3.7288 -4.6590 -0.9730 7.7755 -1.7021 -0.6289 3.1286 -0.0000 -0.0000 0.0000 -90.8149 14.5646 4.0609 7.8953 -13.3830 -0.9277 -0.0000 -0.0000 29.7243 8.9502 -16.2493 -2.5233 -7.1250 0.0000 -0.0000 -12.5353 13.8158 9.4117 -0.0000 -0.0000 0.0000 83.1934 10.2740 30.1219 -26.4063 37.6071 -9.1345 0.0000 -0.0000 -12.6307 -17.6640 -33.3941 9.9414 7.1250 -0.0000 -0.0000 18.5368 -63.7302 -8.5643
-0.4467 16.3418 -43.7644 -0.5617 -3.6666 18.0074 0.0000 0.0000 0.0000 -14.7866 -10.5760 -48.2507 2.1674 9.2065 26.4434 0.1868 5.6972 -12.1981 0.1262 -2.2898 -6.3071 0.0000 0.0000 0.0000 23.7250 -3.9597 -17.4960 -2.0927 -9.0566 25.9724 -1.1283 22.3445 -23.1222 -0.0073 -0.5504 1.5123 0.6015 1.7551 -16.2423 1.4936 2.1326 -4.5237 1.6499 1.0557 4.2419 0.6613 -1.0395 -1.6107 -4.5631 -1.0967 7.6000 -1.6140 -0.6658 2.6675 0.0000 0.0000 0.0000 -90.5317 19.3078 9.5979 9.3940 -15.7861 -1.3052 -0.0000 -0.0000 24.2024 8.9982 -15.9739 -2.4953 -7.1250 0.0000 -0.0000 -12.5101 14.0838 9.3190 0.0000 0.0000 0.0000 82.7638 8.9634 30.7347 -27.6842 38.8239 -9.9251 0.0000 -0.0000 -13.0723 -17.7846 -33.5164 10.0441 7.1250 -0.0000 -0.0000 18.5128 -63.8772 -8.6163
-0.4443 16.3251 -43.5586 -0.7665 -4.0511 18.1173 0.0000 0.0000 0.0000 -14.3675 -10.6425 -48.1344 1.6970 8.2041 23.3357 0.1723 5.7836 -12.0300 0.1412 -2.4220 -6.6735 0.0000 0.0000 0.0000 23.7759 -4.4646 -16.4829 -1.9541 -8.7698 25.0779 -1.0321 22.7694 -22.7546 -0.0017 -0.2667 0.7329 0.5743 1.8112 -14.8854 1.5583 2.2397 -5.0207 1.6901 1.1174 2.9855 0.6019 -0.9417 -2.7725 -4.5786 -0.9262 8.3609 -1.6319 -0.6057 3.1487 -0.0000 -0.0000 0.0000 -90.8489 18.2963 6.6300 8.3930 -14.1880 -1.0464 -0.0000 -0.0000 26.9392 9.5627 -16.3113 -2.7089 -7.1250 0.0000 -0.0000 -12.1288 13.7115 9.1191 -0.0000 -0.0000 0.0000 82.3752 9.2786 31.8504 -28.6071 39.6692 -10.5090 0.0000 -0.0000 -13.7638 -18.0618 -34.2568 10.4020 7.1250 -0.0000 -0.0000 18.8979 -64.6458 -9.1396
-0.4368 16.3134 -43.3346 -1.0292 -4.7981 18.0759 0.0000 0.0000 0.0000 -13.9157 -10.4265 -47.7746 1.3063 7.2403 20.4291 0.1535 6.0101 -11.9273 0.1526 -2.5169 -6.9365 0.0000 0.0000 0.0000 23.6997 -4.8430 -15.1663 -1.8167 -8.4733 24.1611 -0.8926 23.4795 -22.2827 -0.0017 -0.2661 0.7311 0.7923 2.0327 -15.9216 1.5211 2.4675 -4.2665 1.6302 1.2205 4.3414 0.7107 -0.8647 -2.8913 -4.6497 -0.8524 7.5619 -1.6605 -0.5599 2.9012 -0.0000 0.0000 0.0000 -90.9802 17.7613 6.0426 8.3308 -14.0876 -1.0311 -0.0000 -0.0000 26.9615 9.7070 -16.3398 -2.7552 -7.1250 0.0000 -0.0000 -12.0328 13.6728 9.0536 -0.0000 0.0000 0.0000 82.0931 10.9727 32.6188 -29.3952 40.3694 -11.0158 0.0000 -0.0000 -14.0763 -18.2571 -34.7313 10.6444 7.1250 -0.0000 -0.0000 19.1439 -65.1424 -9.4827
-0.4271 16.2898 -43.1157 -1.3386 -5.4357 18.0553 0.0000 0.0000 0.0000 -13.2810 -10.3704 -47.5251 1.0067 6.3843 17.9035 0.1310 6.1509 -11.6654 0.0928 -1.9649 -5.4087 0.0000 0.0000 0.0000 23.6681 -4.9845 -13.7092 -1.6742 -8.1517 23.1758 -0.8255 23.7083 -22.0040 -0.0000 0.0246 -0.0676 1.0351 2.2899 -15.9617 1.5281 2.7689 -4.5053 1.5532 1.3711 4.1149 0.6252 -0.8542 -1.3536 -4.6817 -0.8637 6.9787 -1.6277 -0.5437 2.4202 0.0000 0.0000 0.0000 -90.8671 21.1108 9.3753 9.5108 -15.9707 -1.3372 -0.0000 -0.0000 23.0471 9.7002 -16.5357 -2.7853 -7.1250 0.0000 -0.0000 -12.0338 13.4797 9.1045 0.0000 0.0000 0.0000 81.7890 10.5821 33.4183 -30.3325 41.1767 -11.6279 0.0000 -0.0000 -13.5932 -19.0783 -34.3896 11.0533 7.1250 -0.0000 -0.0000 17.8568 -65.0517 -8.7882
-0.4152 16.2704 -42.8920 -1.6085 -6.0288 18.1828 0.0000 0.0000 0.0000 -12.7065 -10.3491 -47.4469 0.7725 5.6120 15.6626 0.1205 6.1369 -11.4522 0.0420 -1.3233 -3.6388 0.0000 0.0000 0.0000 23.5670 -4.8173 -12.2776 -1.5422 -7.8391 22.2264 -0.7571 23.7714 -21.6307 -0.0012 0.2191 -0.6021 1.0385 2.4447 -15.6201 1.5939 2.9691 -3.9682 1.6597 1.4682 4.4928 0.6610 -0.6910 -4.7495 -4.6828 -0.5855 7.9747 -1.6837 -0.4564 3.4058 0.0000 0.0000 0.0000 -91.0316 20.8675 9.9540 9.8151 -16.4499 -1.4221 -0.0000 -0.0000 21.8911 9.9471 -16.8940 -2.9175 -7.1250 0.0000 -0.0000 -11.8655 13.1069 9.0665 0.0000 0.0000 0.0000 81.4398 12.4000 33.8676 -30.8645 41.6229 -11.9797 0.0000 -0.0000 -12.9105 -19.9077 -32.9910 11.1551 7.1250 -0.0000 -0.0000 15.6189 -63.9484 -7.2596
